<svg width="81" height="81" viewBox="0 0 81 81" fill="none" xmlns="http://www.w3.org/2000/svg">
<g clip-path="url(#clip0)">
<path d="M40.5 0C17.7188 0 0 17.7188 0 40.5C0 67.0781 24.0469 78.4688 27.8437 78.4688C30.375 78.4688 30.375 77.2031 30.375 75.9375L30.375 69.6094C21.5156 72.1406 17.7187 67.0781 16.4531 63.2813C16.4531 63.2813 16.4531 62.0156 13.9219 59.4844C12.6562 58.2188 7.59375 55.6875 12.6562 55.6875C16.4531 55.6875 18.9844 60.75 18.9844 60.75C22.7812 65.8125 27.8437 64.5469 30.375 63.2813C30.375 60.75 32.9062 58.2188 32.9062 58.2188C22.7812 56.9531 15.1875 53.1563 15.1875 39.2344C15.1875 34.1719 16.4531 30.375 18.9844 27.8438C18.9844 27.8438 16.4531 22.7813 18.9844 16.4531C18.9844 16.4531 25.3125 16.4531 30.375 21.5156C34.1719 18.9844 46.8281 18.9844 50.625 21.5156C55.6875 16.4531 62.0156 16.4531 62.0156 16.4531C64.5469 25.3125 62.0156 27.8438 62.0156 27.8438C64.5469 30.375 65.8125 34.1719 65.8125 39.2344C65.8125 53.1563 56.9531 56.9531 48.0937 58.2188C49.3594 59.4844 50.625 62.0156 50.625 65.8125L50.625 75.9375C50.625 77.2031 50.625 78.4688 53.1562 78.4688C56.9531 78.4688 81 67.0781 81 40.5C81 17.7188 63.2812 0 40.5 0Z" fill="#292F33"/>
</g>
<defs>
<clipPath id="clip0">
<rect width="81" height="81" fill="white"/>
</clipPath>
</defs>
</svg>
