<svg width="81" height="81" viewBox="0 0 81 81" fill="none" xmlns="http://www.w3.org/2000/svg">
<path d="M0 0L0 81L81 81L81 0L0 0ZM19.8644 15.9241C23.0726 15.9602 26.233 18.1736 26.3705 22.0051C26.4391 25.4121 23.47 28.0072 19.7803 28.086H19.6914C16.515 28.0494 13.4131 25.7805 13.2693 22.0051C13.3146 18.6359 16.1466 16.004 19.8644 15.9241ZM54.2834 32.0213C57.8106 32.0432 61.1395 33.0896 63.8745 35.8776C66.7167 39.0474 67.6291 43.418 67.7307 47.8614L67.7307 68.0719L56.083 68.0719L56.083 49.2358C56.0571 45.7054 54.8477 41.4141 50.1751 41.2713C47.4366 41.3004 45.5055 42.8917 44.1831 45.5526C43.8222 46.4091 43.7702 47.3936 43.753 48.3756L43.753 68.0719L32.1103 68.0719C32.1548 58.2252 32.2161 48.3792 32.1943 38.5324C32.1943 35.7353 32.1674 33.8519 32.1103 32.8815L43.753 32.8815L43.753 37.8452C44.7413 36.4396 45.8374 35.1066 47.3076 34.0334C49.3019 32.6102 51.6975 32.0646 54.2834 32.0213ZM13.9565 32.8815L25.5992 32.8815L25.5992 68.0719L13.9565 68.0719L13.9565 32.8815Z" fill="#292F33"/>
</svg>
