<svg width="34" height="34" viewBox="0 0 34 34" fill="none" xmlns="http://www.w3.org/2000/svg">
<path d="M14.1452 20.6103C13.9194 20.6107 13.6957 20.5665 13.487 20.4801C13.2784 20.3937 13.0888 20.2669 12.9294 20.107C11.4201 18.5937 10.5726 16.5436 10.5726 14.4063C10.5726 12.269 11.4201 10.2189 12.9294 8.70551L19.2729 2.36193C20.7954 0.839467 22.8211 0 24.9737 0C27.1263 0 29.152 0.839467 30.6745 2.36193C32.1837 3.87531 33.0312 5.9254 33.0312 8.06269C33.0312 10.2 32.1837 12.2501 30.6745 13.7635L27.7754 16.6625C27.4495 16.9656 27.0186 17.1305 26.5736 17.1224C26.1285 17.1144 25.7039 16.934 25.3891 16.6192C25.0744 16.3044 24.894 15.8799 24.8859 15.4348C24.8778 14.9897 25.0427 14.5589 25.3459 14.2329L28.2449 11.3339C28.8897 10.686 29.3284 9.86187 29.5057 8.96517C29.6831 8.06847 29.591 7.13935 29.2412 6.29486C28.8915 5.45037 28.2996 4.72828 27.5402 4.21956C26.7807 3.71084 25.8878 3.43824 24.9737 3.43611C23.7388 3.43611 22.5758 3.91822 21.7025 4.79152L15.3589 11.1351C14.4925 12.0033 14.0059 13.1797 14.0059 14.4063C14.0059 15.6328 14.4925 16.8093 15.3589 17.6775C15.5987 17.918 15.7619 18.2242 15.8279 18.5573C15.8938 18.8905 15.8596 19.2358 15.7296 19.5495C15.5995 19.8633 15.3794 20.1315 15.097 20.3203C14.8147 20.5091 14.4827 20.61 14.1431 20.6103H14.1452Z" fill="white"/>
<path d="M8.05749 33.0415C6.99831 33.0442 5.94911 32.8368 4.97059 32.4314C3.99207 32.026 3.10365 31.4306 2.35672 30.6796C0.847514 29.1662 0 27.1161 0 24.9788C0 22.8415 0.847514 20.7915 2.35672 19.2781L5.25574 16.3791C5.58171 16.0759 6.01256 15.911 6.45763 15.9191C6.90271 15.9272 7.3273 16.1076 7.64207 16.4223C7.95683 16.7371 8.13723 17.1617 8.1453 17.6068C8.15337 18.0518 7.98848 18.4827 7.68533 18.8087L4.78631 21.7077C4.14146 22.3555 3.70275 23.1797 3.52544 24.0764C3.34813 24.9731 3.44017 25.9022 3.78995 26.7467C4.13973 27.5912 4.73161 28.3133 5.49103 28.822C6.25044 29.3307 7.14343 29.6033 8.05749 29.6054C9.29449 29.6054 10.4554 29.1233 11.3287 28.25L17.6722 21.9064C18.5387 21.0383 19.0253 19.8618 19.0253 18.6353C19.0253 17.4087 18.5387 16.2323 17.6722 15.3641C17.3691 15.0381 17.2042 14.6073 17.2123 14.1622C17.2203 13.7171 17.4007 13.2925 17.7155 12.9778C18.0303 12.663 18.4549 12.4826 18.8999 12.4745C19.345 12.4665 19.7759 12.6313 20.1018 12.9345C21.611 14.4479 22.4586 16.498 22.4586 18.6353C22.4586 20.7726 21.611 22.8226 20.1018 24.336L13.7583 30.6796C13.0113 31.4306 12.1229 32.026 11.1444 32.4314C10.1659 32.8368 9.11667 33.0442 8.05749 33.0415Z" fill="white"/>
</svg>
