<svg width="60" height="56" viewBox="0 0 60 56" fill="none" xmlns="http://www.w3.org/2000/svg">
<g clip-path="url(#clip0)">
<path fill-rule="evenodd" clip-rule="evenodd" d="M52.1611 42.63L41.6293 29.7535C41.6293 29.7535 47.2799 31.2795 47.894 31.2795C49.5352 31.2795 48.5823 29.47 47.894 28.7805L39.4764 18.172C39.4764 18.172 43.5282 17.213 44.9999 17.213C46.4752 17.213 45.6952 15.4035 44.9999 14.714L33.1764 0.213484C32.8422 -0.117797 32.3889 -0.303894 31.9164 -0.303894C31.4438 -0.303894 30.9906 -0.117797 30.6564 0.213484L18.674 14.5635C17.9752 15.253 16.9587 17.066 18.674 17.066C20.3893 17.066 24.3987 18.172 24.3987 18.172L15.2646 28.2765C14.5658 28.966 13.2987 30.7755 15.2646 30.7755C16.3905 30.7755 22.147 29.757 22.147 29.757L11.707 42.6615C11.0117 43.3475 9.7411 45.1605 11.707 45.1605C13.6729 45.1605 28.2634 41.636 28.2634 41.636V52.2935C28.2634 54.173 29.8023 55.699 31.7046 55.699C33.5999 55.699 35.287 54.173 35.287 52.2935V41.636C35.287 41.636 50.7281 45.1325 52.1576 45.1325C53.587 45.1325 52.8564 43.316 52.1611 42.63V42.63Z" fill="white"/>
</g>
<defs>
<clipPath id="clip0">
<rect width="60" height="56" fill="white"/>
</clipPath>
</defs>
</svg>
