<svg width="33" height="30" viewBox="0 0 33 30" fill="none" xmlns="http://www.w3.org/2000/svg">
<path d="M24.7487 10.005H19.7989V0H13.1991V10.005H8.24928L16.499 18.3425L24.7487 10.005ZM31.9061 20.8971C31.5597 20.5236 29.2481 18.024 28.5881 17.372C28.1256 16.924 27.5095 16.6742 26.8689 16.675H23.9699L29.0253 21.6675H23.178C23.0985 21.666 23.02 21.6857 22.9505 21.7247C22.881 21.7636 22.8229 21.8204 22.782 21.8893L21.4356 25.0125H11.5624L10.216 21.8893C10.1749 21.8206 10.1167 21.764 10.0472 21.7251C9.97775 21.6862 9.89943 21.6664 9.82002 21.6675H3.97263L9.0264 16.675H6.1291C5.47407 16.675 4.84875 16.9401 4.40986 17.372C3.74988 18.0257 1.43832 20.5253 1.09183 20.8971C0.285006 21.7659 -0.158829 22.4579 0.0523639 23.3133L0.977981 28.4392C1.18917 29.2963 2.11809 30 3.04371 30H29.9576C30.8832 30 31.8121 29.2963 32.0233 28.4392L32.9489 23.3133C33.1568 22.4579 32.7146 21.7659 31.9061 20.8971Z" fill="white"/>
</svg>
